<svg xmlns="http://www.w3.org/2000/svg" viewBox="0 0 720 540" fill="none">
  <rect width="720" height="540" fill="#E8EAEC"/>
  <g stroke="#0B0D0E" stroke-width="1.2" opacity="0.85">
    <rect x="120" y="140" width="380" height="220" rx="2"/>
    <line x1="120" y1="240" x2="500" y2="240"/>
    <line x1="280" y1="140" x2="280" y2="360"/>
    <line x1="400" y1="240" x2="400" y2="360"/>
    <rect x="140" y="160" width="120" height="60"/>
    <rect x="300" y="260" width="80" height="80"/>
    <rect x="420" y="160" width="60" height="160"/>
  </g>
  <g stroke="#5C6B5A" stroke-width="1" opacity="0.7">
    <path d="M80 400 Q100 360 120 400 T160 400"/>
    <line x1="100" y1="400" x2="100" y2="340"/>
    <ellipse cx="100" cy="320" rx="28" ry="36"/>
    <path d="M560 380 Q580 340 600 380 T640 380"/>
    <line x1="580" y1="380" x2="580" y2="300"/>
    <ellipse cx="580" cy="275" rx="32" ry="40"/>
    <path d="M620 420 Q640 390 660 420"/>
    <line x1="640" y1="420" x2="640" y2="360"/>
    <ellipse cx="640" cy="345" rx="22" ry="28"/>
  </g>
  <text x="130" y="125" fill="#0B0D0E" font-family="Georgia, serif" font-size="14" opacity="0.5">PLAN  UNIT… 12 ◊ 32</text>
  <text x="130" y="390" fill="#5C6B5A" font-family="system-ui, sans-serif" font-size="11" opacity="0.6">ťchelle indicative</text>
</svg>
